<svg xmlns="http://www.w3.org/2000/svg" xmlns:xlink="http://www.w3.org/1999/xlink" viewBox="0,0,256,256" width="64px" height="64px">
	<g fill-opacity="0.9098" fill="#000000" fill-rule="nonzero" stroke="none" stroke-width="1" stroke-linecap="butt" stroke-linejoin="miter" stroke-miterlimit="10" stroke-dasharray="" stroke-dashoffset="0" font-family="none" font-weight="none" font-size="none" text-anchor="none" style="mix-blend-mode: normal">
		<g transform="scale(8,8)">
			<path d="M16.01953,4c-1.219,0 -2.34927,0.5363 -3.19726,1.5293c-0.364,0.449 -0.62647,0.9248 -0.85547,1.3418l-0.04492,0.08984c-0.163,0.327 -0.33525,0.66702 -0.53125,1.04102l-0.04297,0.0957c-1.932,3.823 -3.59814,7.29511 -5.11914,10.66211l-0.0957,0.20703c-0.065,0.141 -0.12955,0.28602 -0.18555,0.41602l-0.08203,0.17773c-0.06,0.132 -0.11992,0.26577 -0.16992,0.38477c-0.117,0.266 -0.23528,0.54281 -0.36328,0.88281c-0.313,0.927 -0.40225,1.7682 -0.28125,2.6582c0.271,1.837 1.48869,3.41514 3.17969,4.11914c0.645,0.266 1.29723,0.39453 1.99023,0.39453c0.153,0 0.38172,-0.01187 0.63672,-0.04687c0.836,-0.108 1.6503,-0.39103 2.4043,-0.83203c0.87937,-0.49595 1.74384,-1.21016 2.70508,-2.23633l0.03906,0.05273l0.01563,-0.02148c0.89884,0.96193 1.77033,1.68539 2.6543,2.19727c0.768,0.449 1.58139,0.73094 2.40039,0.83594c0.267,0.038 0.49906,0.05078 0.66406,0.05078c0.684,0 1.34366,-0.1293 1.97266,-0.4043v0.00195c1.674,-0.672 2.88673,-2.21787 3.17773,-4.04687l0.0293,-0.16406c0.158,-0.779 0.08058,-1.6093 -0.23242,-2.5293c-0.04,-0.119 -0.09114,-0.23692 -0.11914,-0.29492c-0.077,-0.207 -0.16052,-0.40169 -0.22852,-0.55469c-0.059,-0.148 -0.1245,-0.28687 -0.1875,-0.42187l-0.1582,-0.35742c-0.053,-0.12 -0.1022,-0.23847 -0.1582,-0.35547l-0.06445,-0.125c-1.644,-3.627 -3.35689,-7.1927 -5.08789,-10.5957l-0.08398,-0.16797c-0.184,-0.34 -0.36945,-0.71037 -0.56445,-1.10937l-0.05664,-0.10937c-0.205,-0.371 -0.41542,-0.75186 -0.73242,-1.13086l-0.04687,-0.06055c-0.792,-1.016 -1.92169,-1.57422 -3.17969,-1.57422zM15.99219,6.02148c0.59112,-0.00925 1.17353,0.23356 1.58203,0.72656l0.10547,0.13281c0.21,0.24 0.35839,0.50964 0.52539,0.80664l0.06055,0.13086c0.185,0.369 0.37955,0.7598 0.56055,1.0918l0.07227,0.14648c1.721,3.382 3.42006,6.92023 5.03906,10.49023l0.14258,0.31641l0.01172,0.01172c0.022,0.05 0.04441,0.09939 0.06641,0.15039l0.17969,0.40234c0.048,0.105 0.09716,0.21128 0.16016,0.36328c0.062,0.141 0.13175,0.29834 0.21875,0.52734c0.026,0.06 0.05517,0.12064 0.07617,0.18164l0.00195,0.00586c0.209,0.61 0.25439,1.10287 0.15039,1.54688l-0.02539,0.14844c-0.171,1.153 -0.91962,2.12731 -2.01562,2.57031c-0.324,0.147 -0.73706,0.22852 -1.16406,0.22852c-0.094,0 -0.22553,-0.0082 -0.39453,-0.0332c-0.567,-0.072 -1.12702,-0.26703 -1.66602,-0.58203c-0.78653,-0.45541 -1.58307,-1.13934 -2.43164,-2.08594l0.06445,-0.08398c1.368,-1.786 2.22397,-3.41856 2.54297,-4.85156l0.00195,-0.00781c0.154,-0.71 0.1838,-1.3787 0.0918,-1.9707c-0.076,-0.575 -0.28247,-1.125 -0.60547,-1.625c-0.695,-1.102 -1.94375,-1.75977 -3.34375,-1.75977c-1.342,0 -2.5805,0.63803 -3.3125,1.70703l-0.05469,0.0918c-0.311,0.496 -0.50713,1.0275 -0.57812,1.5625c-0.099,0.636 -0.07006,1.28847 0.08594,1.98047c0.307,1.445 1.19083,3.13381 2.54883,4.88281l0.04102,0.05273l-0.00195,0.00195c-0.909,1.004 -1.68689,1.67042 -2.46289,2.10742c-0.535,0.312 -1.09378,0.50898 -1.67578,0.58398c-0.152,0.022 -0.28214,0.0293 -0.36914,0.0293c-0.434,0 -0.82461,-0.07719 -1.22461,-0.24219c-1.044,-0.434 -1.79784,-1.41673 -1.96484,-2.55273c-0.078,-0.569 -0.01645,-1.10317 0.18555,-1.70117c0.102,-0.272 0.20641,-0.51663 0.31641,-0.76562c0.049,-0.117 0.1023,-0.23266 0.1543,-0.34766l0.0918,-0.20703c0.056,-0.129 0.11387,-0.25681 0.17188,-0.38281l0.12109,-0.26953c1.487,-3.289 3.14213,-6.73245 5.07813,-10.56445l0.0332,-0.07812c0.177,-0.337 0.35539,-0.69125 0.52539,-1.03125l0.02539,-0.05273c0.182,-0.329 0.388,-0.70214 0.625,-0.99414c0.442,-0.518 1.04169,-0.77981 1.63281,-0.78906zM16,15c0.709,0 1.3253,0.30794 1.6543,0.83594c0.171,0.264 0.27345,0.52998 0.31445,0.83398c0.057,0.363 0.03359,0.79877 -0.06641,1.25977c-0.236,1.057 -0.8762,2.30198 -1.9082,3.70898c-1.019,-1.377 -1.67339,-2.65366 -1.90039,-3.72266c-0.103,-0.456 -0.1255,-0.86358 -0.0625,-1.26758c0.039,-0.283 0.13955,-0.5485 0.31055,-0.8125l0.01953,-0.0332c0.363,-0.504 0.97167,-0.80273 1.63867,-0.80273z" />
		</g>
	</g>
</svg>
